<svg width="297" height="382" viewBox="0 0 297 382" fill="none" xmlns="http://www.w3.org/2000/svg">
<path d="M292.065 304.638L291.231 305.191L291.528 305.638H292.065V304.638ZM259.27 255.188L259.604 254.245L256.781 253.245L258.436 255.74L259.27 255.188ZM303.299 304.638V305.638H304.137L304.284 304.812L303.299 304.638ZM179.096 335.036L180.031 335.39L180.382 334.464L179.459 334.104L179.096 335.036ZM174.003 348.491L173.758 349.461L174.623 349.679L174.938 348.845L174.003 348.491ZM120.453 334.954L119.518 334.6L119.121 335.648L120.208 335.923L120.453 334.954ZM127.969 315.094L128.333 314.163L127.392 313.796L127.034 314.74L127.969 315.094ZM193.243 336.612L194.178 336.966L194.528 336.04L193.606 335.68L193.243 336.612ZM176.822 379.999L176.459 380.93L177.4 381.297L177.757 380.353L176.822 379.999ZM176.281 379.788L175.918 380.719L175.918 380.719L176.281 379.788ZM166.037 356.413L165.127 355.997L165.113 356.027L165.101 356.059L166.037 356.413ZM166.037 356.412L166.947 356.827L166.961 356.797L166.972 356.766L166.037 356.412ZM176.067 329.913L176.43 328.981L175.489 328.614L175.131 329.559L176.067 329.913ZM97.7239 166.558L98.7226 166.508L98.67 165.464L97.6293 165.563L97.7239 166.558ZM74.3877 168.776L74.2931 167.781L73.4025 167.865L73.3878 168.76L74.3877 168.776ZM73.23 239.262L72.2301 239.246L72.2292 239.298L72.234 239.351L73.23 239.262ZM87.1448 251.297L87.075 250.3L87.1448 251.297ZM101.94 250.263L102.01 251.26L102.988 251.192L102.939 250.212L101.94 250.263ZM179.996 163.089L180.982 162.921L180.842 162.1L180.009 162.089L179.996 163.089ZM164.029 162.88L164.042 161.88L163.04 161.867L163.029 162.869L164.029 162.88ZM163.083 246.632L162.083 246.621L162.072 247.599L163.049 247.632L163.083 246.632ZM189.618 219.552L190.617 219.514L190.615 219.448L190.604 219.384L189.618 219.552ZM87.3444 276.388L86.3635 276.193L86.3594 276.213L86.3563 276.234L87.3444 276.388ZM85.7019 283.565L86.6457 283.896L86.6525 283.876L86.6585 283.857L85.7019 283.565ZM82.9154 290.316L83.8686 290.618L82.9154 290.316ZM89.0221 311.699L88.2823 312.371L88.2836 312.373L89.0221 311.699ZM105.781 321.8L105.531 322.769L105.533 322.769L105.781 321.8ZM120.182 323.337L120.217 322.337L120.182 323.337ZM159.981 319.843L160.307 320.788L160.314 320.786L159.981 319.843ZM171.544 314.511L171.108 313.61L171.075 313.627L171.043 313.645L171.544 314.511ZM174.544 312.112L175.325 312.737L175.347 312.71L175.366 312.681L174.544 312.112ZM175.627 307.193L176.627 307.188L175.627 307.193ZM174.721 289.948L175.72 289.995L174.721 289.948ZM175.171 280.399L176.166 280.309L176.166 280.299L176.164 280.289L175.171 280.399ZM161.909 265.226L162.142 264.253L162.132 264.251L162.122 264.249L161.909 265.226ZM150.916 265.226L151.013 266.222H151.013L150.916 265.226ZM122.306 266.525L122.313 265.525H122.313L122.306 266.525ZM93.1353 264.791L93.119 265.791H93.119L93.1353 264.791ZM89.407 268.465L90.3582 268.773L90.3583 268.773L89.407 268.465ZM49.1805 271.705L48.9333 272.674L48.9433 272.677L48.9533 272.679L49.1805 271.705ZM41.1475 270.839L41.1125 269.839L41.102 269.84L41.0914 269.84L41.1475 270.839ZM22.5336 294.832L21.5495 295.01L21.5523 295.025L21.5555 295.04L22.5336 294.832ZM25.7168 303.662L26.6164 303.225L26.6097 303.211L26.6026 303.198L25.7168 303.662ZM34.3462 315.242L34.9268 314.428H34.9268L34.3462 315.242ZM41.9619 318.922L41.6047 319.856L41.9619 318.922ZM62.7336 326.866L62.3764 327.8H62.3764L62.7336 326.866ZM71.9316 330.287L71.6003 331.23L71.6005 331.23L71.9316 330.287ZM119.974 339.982L119.913 340.981H119.914L119.974 339.982ZM134.891 339.215L134.66 338.242V338.242L134.891 339.215ZM137.946 337.54L138.775 338.098L138.797 338.066L138.816 338.032L137.946 337.54ZM138.628 335.251L137.638 335.112L137.633 335.148L137.63 335.185L138.628 335.251ZM139.906 326.167L138.916 326.028L139.906 326.167ZM139.798 322.338L138.864 322.696L138.864 322.696L139.798 322.338ZM136.345 319.035L135.841 319.899L136.345 319.035ZM95.2496 295.752L95.9387 295.028V295.028L95.2496 295.752ZM86.9913 287.354L86.522 288.237L86.9913 287.354ZM75.0188 282.416L75.447 281.512L75.0188 282.416ZM69.9183 283.951L70.2215 282.998H70.2215L69.9183 283.951ZM113.571 308.115L113.915 309.054L115.338 308.534L114.3 307.43L113.571 308.115ZM87.9706 294.408L87.6791 295.365H87.6791L87.9706 294.408ZM68.4938 287.441L68.0688 288.346L68.4938 287.441ZM60.6273 282.458L61.609 282.649V282.649L60.6273 282.458ZM114.228 142.867L114.202 141.867L113.876 141.876L113.618 142.075L114.228 142.867ZM94.4601 158.104L94.4918 159.103L94.8147 159.093L95.0706 158.896L94.4601 158.104ZM83.3591 249.926L84.3558 249.844L84.3538 249.82L84.3508 249.797L83.3591 249.926ZM85.1704 271.977L84.1738 272.059L84.2302 272.746L84.8925 272.938L85.1704 271.977ZM119.528 281.915L119.25 282.876L119.528 281.915ZM176.478 283.154L176.714 284.126L177.633 283.903L177.461 282.973L176.478 283.154ZM172.395 261.032L171.408 260.869L171.38 261.042L171.411 261.213L172.395 261.032ZM162.783 152.978L162.12 153.727L162.493 154.057L162.982 153.958L162.783 152.978ZM150.298 141.919L150.962 141.171L150.666 140.909L150.272 140.92L150.298 141.919ZM153.42 86.0842L152.707 86.786L153.42 86.0842ZM153.42 124.959L152.707 124.258L153.42 124.959ZM115.124 124.959L114.412 125.661L115.124 124.959ZM115.124 86.0842L114.412 85.3824L115.124 86.0842ZM101.079 104.826H100.079V105.826H101.079V104.826ZM111.79 104.826V105.826H112.498L112.733 105.158L111.79 104.826ZM116.515 91.3956L117.512 91.3254L115.571 91.0637L116.515 91.3956ZM117.459 104.826L116.462 104.896L116.527 105.826H117.459V104.826ZM122.578 104.826V105.826H123.287L123.522 105.158L122.578 104.826ZM125.335 96.9916L126.332 96.9214L124.391 96.6598L125.335 96.9916ZM125.886 104.826L124.888 104.896L124.954 105.826H125.886V104.826ZM163.923 104.826V105.826H164.923V104.826H163.923ZM105.513 146.026V145.026H104.513V146.026H105.513ZM159.671 146.026H160.671V145.026H159.671V146.026ZM159.671 212.377V213.377H160.671V212.377H159.671ZM105.513 212.377H104.513V213.377H105.513V212.377ZM108.498 334.402L108.134 333.47L107.212 333.83L107.563 334.756L108.498 334.402ZM113.591 347.857L112.656 348.211L112.972 349.045L113.836 348.827L113.591 347.857ZM167.141 334.32L167.386 335.289L168.473 335.014L168.076 333.966L167.141 334.32ZM159.624 314.46L160.559 314.106L160.202 313.162L159.261 313.529L159.624 314.46ZM111.527 329.282L112.462 328.928L112.104 327.983L111.163 328.351L111.527 329.282ZM121.556 355.781L122.502 355.457L122.497 355.442L122.491 355.427L121.556 355.781ZM121.557 355.782L120.611 356.107L120.616 356.121L120.621 356.136L121.557 355.782ZM111.312 379.157L111.675 380.089H111.675L111.312 379.157ZM110.771 379.368L109.836 379.722L110.194 380.667L111.135 380.3L110.771 379.368ZM94.3505 335.982L93.9871 335.05L93.0648 335.41L93.4152 336.336L94.3505 335.982ZM215.539 266.553L215.292 265.584L215.282 265.587L215.273 265.589L215.539 266.553ZM228.709 265.64L228.82 264.646L228.82 264.646L228.709 265.64ZM238.428 269.502L239.122 268.781H239.122L238.428 269.502ZM242.646 281.546L243.646 281.53L243.646 281.526L242.646 281.546ZM234.59 305.576L233.803 304.959L233.798 304.965L233.793 304.972L234.59 305.576ZM229.984 310.077L230.52 310.921L230.545 310.905L230.568 310.888L229.984 310.077ZM223.991 313.008L223.654 312.067L223.637 312.073L223.62 312.08L223.991 313.008ZM177.474 331.634L177.102 330.706H177.102L177.474 331.634ZM140.19 344.679L139.945 343.709L139.844 343.735L139.75 343.781L140.19 344.679ZM136.31 343.305L135.407 343.734L135.407 343.734L136.31 343.305ZM136.28 343.24L137.193 342.832L137.155 342.748L137.103 342.672L136.28 343.24ZM126.085 324.307L127.012 323.932L126.956 323.795L126.863 323.68L126.085 324.307ZM126.64 322.296L126.976 323.238L127.064 323.206L127.144 323.16L126.64 322.296ZM159.542 303.105L160.046 303.969L159.542 303.105ZM166.239 298.421L166.939 299.135L166.941 299.134L166.239 298.421ZM169.677 293.562L168.773 293.135L168.772 293.137L169.677 293.562ZM171.294 287.634L172.069 288.266H172.069L171.294 287.634ZM176.413 286.092L176.705 287.049L176.71 287.047L176.413 286.092ZM181.985 283.954L181.571 283.044L181.567 283.046L181.985 283.954ZM202.954 271.841L203.439 272.716L203.448 272.711L203.456 272.706L202.954 271.841ZM196.886 280.886L196.325 280.058L196.302 280.074L196.279 280.091L196.886 280.886ZM178.311 293.581L178.931 294.366L178.311 293.581ZM144.074 315.699L143.091 315.515L142.905 316.513L143.905 316.684L144.074 315.699ZM200.531 281.599L199.911 280.814H199.911L200.531 281.599ZM203.055 277.287L203.349 276.331L203.055 277.287ZM86.8389 188.365L85.8469 188.239L85.7902 188.683L86.0841 189.021L86.8389 188.365ZM87.5864 182.507L87.6603 181.51L86.7145 181.44L86.5945 182.381L87.5864 182.507ZM96.1763 199.108L95.4215 199.764L95.7445 200.136L96.2359 200.106L96.1763 199.108ZM107.889 162.895L107.778 163.888L107.778 163.888L107.889 162.895ZM115.81 167.832L116.651 167.291L116.651 167.29L115.81 167.832ZM112.273 183.354L112.787 184.211L112.791 184.209L112.273 183.354ZM110.831 184.073L110.455 183.146L110.023 183.322L109.88 183.766L110.831 184.073ZM93.6902 237.298L94.5942 237.725L94.6221 237.666L94.642 237.604L93.6902 237.298ZM78.0309 229.559L78.9302 229.996L78.9563 229.943L78.9758 229.886L78.0309 229.559ZM96.26 176.925L97.2049 177.252L97.3082 176.954L97.2217 176.651L96.26 176.925ZM87.0938 183.008L87.9601 182.508L86.7485 180.407L86.1271 182.752L87.0938 183.008ZM111.115 191.526L112.084 191.776L112.691 189.415L110.601 190.669L111.115 191.526ZM97.354 244.986V245.986H98.1292L98.3224 245.235L97.354 244.986ZM85.7596 244.986L85.5734 245.969L85.6657 245.986H85.7596V244.986ZM73.7655 242.712L72.7769 242.562L72.6319 243.515L73.5792 243.695L73.7655 242.712ZM77.1238 220.625L76.1572 220.368L76.1433 220.421L76.1351 220.474L77.1238 220.625ZM157.225 194.65L156.412 195.233L156.658 195.575L157.075 195.638L157.225 194.65ZM149.088 183.31L148.139 182.994L148.057 183.242L148.106 183.498L149.088 183.31ZM168.162 175.849L169.077 175.446L168.888 175.016L168.435 174.887L168.162 175.849ZM159.379 155.03L158.945 155.931L158.952 155.934L159.379 155.03ZM165.189 168.077L164.229 167.798L164.14 168.104L164.244 168.404L165.189 168.077ZM183.418 220.711L182.474 221.038L182.493 221.095L182.519 221.148L183.418 220.711ZM167.759 228.45L166.807 228.756L166.827 228.818L166.855 228.877L167.759 228.45ZM150.618 175.225L151.57 174.918L151.427 174.474L150.994 174.298L150.618 175.225ZM149.177 174.506L148.659 175.361L148.662 175.363L149.177 174.506ZM145.639 158.984L144.798 158.443L144.798 158.443L145.639 158.984ZM153.56 154.047L153.671 155.041L153.674 155.04L153.56 154.047ZM187.079 226.411L187.95 226.902L188.178 226.497L188.015 226.061L187.079 226.411ZM181.458 236.391L181.542 237.387L182.069 237.342L182.329 236.881L181.458 236.391ZM180.645 236.459L180.56 235.463H180.56L180.645 236.459ZM162.852 228.822L162.074 229.451L162.852 228.822ZM154.224 210.196L155.206 210.009L154.224 210.196ZM292.898 304.085L260.103 254.635L258.436 255.74L291.231 305.191L292.898 304.085ZM259.27 255.188C258.936 256.13 258.936 256.13 258.936 256.13C258.936 256.13 258.936 256.13 258.937 256.131C258.938 256.131 258.94 256.132 258.943 256.133C258.948 256.134 258.956 256.137 258.967 256.141C258.99 256.149 259.024 256.162 259.069 256.178C259.16 256.211 259.295 256.262 259.473 256.329C259.829 256.463 260.353 256.665 261.019 256.933C262.351 257.471 264.252 258.276 266.516 259.34C271.05 261.472 277.025 264.638 282.816 268.783C294.469 277.122 305.024 289.151 302.314 304.464L304.284 304.812C307.21 288.276 295.75 275.579 283.98 267.156C278.06 262.919 271.97 259.695 267.367 257.53C265.064 256.448 263.129 255.628 261.767 255.079C261.086 254.804 260.548 254.597 260.179 254.457C259.995 254.388 259.852 254.335 259.755 254.3C259.707 254.282 259.67 254.269 259.644 254.26C259.632 254.255 259.622 254.251 259.615 254.249C259.612 254.248 259.609 254.247 259.607 254.246C259.606 254.246 259.605 254.246 259.605 254.245C259.604 254.245 259.604 254.245 259.27 255.188ZM303.299 303.638H292.065V305.638H303.299V303.638ZM178.161 334.682L173.068 348.137L174.938 348.845L180.031 335.39L178.161 334.682ZM174.248 347.522L120.699 333.984L120.208 335.923L173.758 349.461L174.248 347.522ZM121.389 335.308L128.905 315.448L127.034 314.74L119.518 334.6L121.389 335.308ZM127.606 316.026L178.732 335.967L179.459 334.104L128.333 314.163L127.606 316.026ZM192.308 336.258L175.887 379.645L177.757 380.353L194.178 336.966L192.308 336.258ZM177.185 379.067L176.645 378.856L175.918 380.719L176.459 380.93L177.185 379.067ZM176.645 378.856C172.483 377.233 169.122 373.996 167.306 369.852L165.475 370.655C167.501 375.279 171.256 378.901 175.918 380.719L176.645 378.856ZM167.306 369.852C165.49 365.709 165.37 361.001 166.972 356.767L165.101 356.059C163.314 360.782 163.448 366.032 165.475 370.655L167.306 369.852ZM166.946 356.828L166.947 356.827L165.128 355.996L165.127 355.997L166.946 356.828ZM166.972 356.766L177.002 330.267L175.131 329.559L165.102 356.058L166.972 356.766ZM175.703 330.844L192.879 337.544L193.606 335.68L176.43 328.981L175.703 330.844ZM97.6293 165.563L74.2931 167.781L74.4823 169.772L97.8185 167.554L97.6293 165.563ZM73.3878 168.76L72.2301 239.246L74.2298 239.278L75.3876 168.792L73.3878 168.76ZM72.234 239.351C72.5662 243.061 74.3167 246.495 77.1156 248.916L78.424 247.404C76.0211 245.325 74.5124 242.371 74.226 239.173L72.234 239.351ZM77.1156 248.916C79.915 251.338 83.5401 252.552 87.2145 252.295L87.075 250.3C83.9318 250.52 80.8263 249.482 78.424 247.404L77.1156 248.916ZM87.2145 252.295L102.01 251.26L101.871 249.265L87.075 250.3L87.2145 252.295ZM102.939 250.212L98.7226 166.508L96.7251 166.608L100.942 250.313L102.939 250.212ZM180.009 162.089L164.042 161.88L164.016 163.88L179.983 164.089L180.009 162.089ZM163.029 162.869L162.083 246.621L164.083 246.644L165.029 162.892L163.029 162.869ZM163.049 247.632C166.717 247.756 170.37 247.112 173.781 245.739L173.035 243.884C169.882 245.152 166.506 245.748 163.117 245.633L163.049 247.632ZM173.781 245.739C177.192 244.367 180.287 242.296 182.873 239.657L181.444 238.257C179.051 240.7 176.188 242.615 173.035 243.884L173.781 245.739ZM182.873 239.657C185.459 237.018 187.48 233.867 188.812 230.402L186.946 229.684C185.711 232.896 183.838 235.814 181.444 238.257L182.873 239.657ZM188.812 230.402C190.145 226.936 190.759 223.23 190.617 219.514L188.619 219.59C188.75 223.036 188.18 226.472 186.946 229.684L188.812 230.402ZM190.604 219.384L180.982 162.921L179.01 163.257L188.632 219.72L190.604 219.384ZM86.3563 276.234C85.9853 278.617 85.447 280.969 84.7453 283.274L86.6585 283.857C87.3877 281.462 87.9471 279.017 88.3325 276.541L86.3563 276.234ZM84.7581 283.235C84.3732 284.333 83.8823 285.395 83.3722 286.518C82.8695 287.626 82.3508 288.788 81.9622 290.014L83.8686 290.618C84.2168 289.52 84.6884 288.457 85.1933 287.345C85.6909 286.249 86.2248 285.097 86.6457 283.896L84.7581 283.235ZM81.9622 290.014C79.4674 297.883 82.9438 306.501 88.2823 312.371L89.7619 311.026C84.7014 305.461 81.6668 297.563 83.8686 290.618L81.9622 290.014ZM88.2836 312.373C92.9226 317.453 98.9123 321.065 105.531 322.769L106.03 320.832C99.7902 319.225 94.1396 315.82 89.7606 311.024L88.2836 312.373ZM105.533 322.769C110.346 323.998 115.332 324.17 120.148 324.336L120.217 322.337C115.365 322.17 110.596 321.998 106.028 320.831L105.533 322.769ZM120.148 324.336C133.502 324.796 147.42 325.225 160.307 320.788L159.656 318.897C147.176 323.194 133.633 322.799 120.217 322.337L120.148 324.336ZM160.314 320.786C164.38 319.352 168.306 317.541 172.045 315.376L171.043 313.645C167.411 315.748 163.597 317.507 159.648 318.9L160.314 320.786ZM171.979 315.411C173.278 314.783 174.421 313.869 175.325 312.737L173.763 311.488C173.044 312.388 172.136 313.113 171.108 313.61L171.979 315.411ZM175.366 312.681C176.529 311.001 176.635 308.897 176.627 307.188L174.627 307.198C174.635 308.906 174.494 310.427 173.722 311.543L175.366 312.681ZM176.627 307.188C176.612 304.255 176.312 301.33 176.057 298.479C175.8 295.608 175.587 292.797 175.72 289.995L173.722 289.9C173.582 292.852 173.808 295.784 174.065 298.657C174.324 301.55 174.613 304.37 174.627 307.198L176.627 307.188ZM175.72 289.995C175.795 288.421 175.974 286.891 176.108 285.251C176.239 283.642 176.319 281.984 176.166 280.309L174.175 280.49C174.311 281.992 174.242 283.515 174.114 285.089C173.989 286.632 173.799 288.287 173.722 289.9L175.72 289.995ZM176.164 280.289C175.742 276.479 174.169 272.893 171.66 270.022L170.154 271.338C172.393 273.9 173.799 277.103 174.177 280.51L176.164 280.289ZM171.66 270.022C169.151 267.151 165.827 265.135 162.142 264.253L161.676 266.198C164.954 266.983 167.916 268.777 170.154 271.338L171.66 270.022ZM162.122 264.249C158.339 263.424 154.435 263.878 150.819 264.231L151.013 266.222C154.723 265.859 158.283 265.459 161.696 266.203L162.122 264.249ZM150.819 264.231C141.345 265.155 131.83 265.587 122.313 265.525L122.3 267.525C131.886 267.587 141.47 267.152 151.013 266.222L150.819 264.231ZM122.313 265.525C117.477 265.494 112.648 265.103 107.786 264.697C102.935 264.292 98.0471 263.871 93.1515 263.791L93.119 265.791C97.9347 265.87 102.752 266.284 107.619 266.69C112.474 267.096 117.376 267.493 122.3 267.525L122.313 265.525ZM93.1515 263.791C91.6667 263.767 90.5283 263.966 89.7572 264.927C89.4171 265.35 89.204 265.859 89.0275 266.364C88.8571 266.851 88.667 267.504 88.4557 268.157L90.3583 268.773C90.6041 268.015 90.7496 267.498 90.9153 267.024C91.0748 266.568 91.1981 266.326 91.3168 266.178C91.4633 265.996 91.7319 265.769 93.119 265.791L93.1515 263.791ZM88.4557 268.156C87.6015 270.791 86.9028 273.474 86.3635 276.193L88.3252 276.582C88.8493 273.94 89.5282 271.333 90.3582 268.773L88.4557 268.156ZM49.4278 270.737C46.7113 270.043 43.9121 269.741 41.1125 269.839L41.1824 271.838C43.7918 271.747 46.4009 272.028 48.9333 272.674L49.4278 270.737ZM41.0914 269.84C38.1059 270.008 35.1903 270.819 32.5386 272.218L33.4721 273.987C35.8704 272.721 38.5059 271.988 41.2035 271.837L41.0914 269.84ZM32.5386 272.218C29.8869 273.618 27.5604 275.574 25.7129 277.955L27.2932 279.181C28.9673 277.023 31.0738 275.253 33.4721 273.987L32.5386 272.218ZM25.7129 277.955C23.8655 280.336 22.5393 283.089 21.8217 286.029L23.7647 286.503C24.4159 283.835 25.619 281.339 27.2932 279.181L25.7129 277.955ZM21.8217 286.029C21.1042 288.969 21.0113 292.03 21.5495 295.01L23.5176 294.654C23.0292 291.95 23.1135 289.171 23.7647 286.503L21.8217 286.029ZM21.5555 295.04C22.2297 298.207 23.332 301.265 24.831 304.126L26.6026 303.198C25.1884 300.498 24.1481 297.613 23.5116 294.624L21.5555 295.04ZM24.8172 304.099C26.9568 308.507 29.6023 313.087 33.7656 316.056L34.9268 314.428C31.2023 311.772 28.7376 307.595 26.6164 303.225L24.8172 304.099ZM33.7656 316.056C36.1938 317.788 38.9861 318.855 41.6047 319.856L42.3191 317.988C39.6608 316.971 37.1127 315.987 34.9268 314.428L33.7656 316.056ZM41.6047 319.856L62.3764 327.8L63.0908 325.932L42.3191 317.988L41.6047 319.856ZM62.3764 327.8C65.4301 328.968 68.4991 330.141 71.6003 331.23L72.2629 329.343C69.1921 328.265 66.1487 327.101 63.0908 325.932L62.3764 327.8ZM71.6005 331.23C87.1914 336.701 103.446 339.982 119.913 340.981L120.035 338.984C103.752 337.996 87.6795 334.753 72.2627 329.343L71.6005 331.23ZM119.914 340.981C124.917 341.283 130.104 341.377 135.121 340.188L134.66 338.242C129.946 339.359 125.006 339.285 120.034 338.984L119.914 340.981ZM135.121 340.188C136.266 339.917 137.868 339.446 138.775 338.098L137.116 336.982C136.686 337.621 135.824 337.966 134.66 338.242L135.121 340.188ZM138.816 338.032C139.286 337.2 139.563 336.272 139.626 335.317L137.63 335.185C137.587 335.841 137.397 336.478 137.075 337.047L138.816 338.032ZM139.618 335.39L140.897 326.307L138.916 326.028L137.638 335.112L139.618 335.39ZM140.897 326.307C141.07 325.072 141.301 323.464 140.731 321.98L138.864 322.696C139.218 323.62 139.102 324.704 138.916 326.028L140.897 326.307ZM140.731 321.98C140.004 320.084 138.22 318.971 136.849 318.171L135.841 319.899C137.269 320.732 138.42 321.539 138.864 322.696L140.731 321.98ZM136.849 318.171C129.978 314.165 122.484 311.032 115.423 307.606C108.318 304.159 101.571 300.383 95.9387 295.028L94.5606 296.477C100.422 302.05 107.395 305.934 114.55 309.406C121.75 312.899 129.056 315.943 135.841 319.899L136.849 318.171ZM95.9387 295.028C94.6386 293.792 93.4743 292.225 92.103 290.599C90.7789 289.029 89.2866 287.442 87.4607 286.471L86.522 288.237C87.9838 289.014 89.2677 290.34 90.5742 291.889C91.8337 293.382 93.1546 295.14 94.5606 296.477L95.9387 295.028ZM87.4607 286.471C85.5308 285.446 83.4434 284.647 81.3999 283.889C79.3361 283.124 77.3247 282.402 75.447 281.512L74.5906 283.319C76.5665 284.256 78.6773 285.012 80.7043 285.764C82.7516 286.524 84.7237 287.282 86.522 288.237L87.4607 286.471ZM75.447 281.512C67.1031 277.558 58.6747 272.894 49.4078 270.732L48.9533 272.679C57.9476 274.778 66.0853 279.289 74.5906 283.319L75.447 281.512ZM69.6152 284.904C73.182 286.038 82.6856 290.62 92.0301 295.67C96.6847 298.186 101.268 300.8 105.013 303.133C108.795 305.49 111.617 307.497 112.843 308.8L114.3 307.43C112.869 305.909 109.824 303.775 106.07 301.436C102.279 299.074 97.6578 296.438 92.981 293.911C83.6629 288.875 73.9967 284.199 70.2215 282.998L69.6152 284.904ZM113.228 307.176C113.446 307.096 113.625 307.123 113.639 307.124C113.686 307.13 113.711 307.138 113.703 307.135C113.689 307.132 113.64 307.116 113.545 307.078C113.361 307.004 113.089 306.882 112.73 306.709C112.017 306.366 111.025 305.857 109.84 305.23C107.472 303.979 104.369 302.282 101.259 300.567C98.1482 298.851 95.0429 297.123 92.6605 295.805C91.4712 295.147 90.4617 294.591 89.7261 294.192C89.3589 293.993 89.0557 293.831 88.8309 293.714C88.719 293.656 88.6212 293.606 88.542 293.568C88.4911 293.543 88.3732 293.486 88.262 293.452L87.6791 295.365C87.6133 295.345 87.5865 295.327 87.6696 295.368C87.7244 295.394 87.8035 295.434 87.9086 295.489C88.1178 295.597 88.4088 295.753 88.773 295.95C89.5004 296.345 90.5033 296.897 91.6924 297.555C94.0667 298.868 97.1828 300.602 100.293 302.318C103.403 304.034 106.52 305.739 108.906 306.999C110.097 307.628 111.115 308.151 111.863 308.511C112.234 308.69 112.555 308.836 112.803 308.935C112.925 308.984 113.052 309.031 113.171 309.063C113.23 309.08 113.311 309.099 113.403 309.11C113.461 309.117 113.674 309.142 113.915 309.054L113.228 307.176ZM88.262 293.452C81.66 291.44 75.1019 289.438 68.9188 286.535L68.0688 288.346C74.4033 291.32 81.0998 293.36 87.6791 295.365L88.262 293.452ZM68.9188 286.535C68.2144 286.205 66.2652 285.407 64.4356 284.447C63.5272 283.97 62.719 283.488 62.1695 283.051C61.8921 282.83 61.7263 282.657 61.6435 282.538C61.553 282.409 61.6439 282.469 61.609 282.649L59.6457 282.267C59.5323 282.85 59.7709 283.35 60.0039 283.684C60.2445 284.028 60.5778 284.341 60.9248 284.616C61.6242 285.173 62.566 285.724 63.5061 286.218C65.3733 287.198 67.514 288.085 68.0688 288.346L68.9188 286.535ZM61.609 282.649C61.5688 282.855 61.4072 282.926 61.433 282.916C61.4965 282.892 61.6742 282.855 62.0167 282.865C62.6848 282.884 63.623 283.064 64.6656 283.334C66.7508 283.875 68.8895 284.673 69.6152 284.904L70.2215 282.998C69.6438 282.814 67.3138 281.955 65.1678 281.398C64.0947 281.12 62.9767 280.891 62.0732 280.866C61.63 280.853 61.143 280.885 60.7162 281.049C60.2518 281.227 59.7742 281.606 59.6457 282.267L61.609 282.649ZM113.618 142.075L93.8496 157.312L95.0706 158.896L114.839 143.659L113.618 142.075ZM94.4601 158.104C94.4283 157.104 94.4279 157.104 94.4275 157.104C94.4272 157.104 94.4266 157.104 94.4261 157.104C94.4251 157.104 94.4237 157.104 94.422 157.105C94.4186 157.105 94.414 157.105 94.4081 157.105C94.3963 157.105 94.3796 157.106 94.3581 157.107C94.315 157.109 94.2528 157.112 94.1726 157.116C94.0124 157.125 93.7804 157.139 93.4871 157.162C92.9008 157.208 92.0681 157.288 91.0726 157.429C89.0866 157.708 86.4282 158.227 83.7781 159.187C81.1367 160.144 78.4353 161.564 76.4307 163.687C74.4 165.837 73.116 168.678 73.3074 172.354L75.3047 172.25C75.1437 169.158 76.2027 166.841 77.8848 165.06C79.593 163.251 81.9742 161.968 84.4594 161.067C86.9359 160.17 89.4482 159.677 91.3512 159.409C92.3002 159.276 93.0915 159.199 93.6432 159.156C93.919 159.134 94.1344 159.121 94.2794 159.113C94.3518 159.109 94.4066 159.107 94.4425 159.105C94.4604 159.104 94.4736 159.104 94.4819 159.104C94.486 159.104 94.4889 159.103 94.4906 159.103C94.4914 159.103 94.4919 159.103 94.4921 159.103C94.4922 159.103 94.4922 159.103 94.4922 159.103C94.4921 159.103 94.4918 159.103 94.4601 158.104ZM73.3074 172.354C73.6621 179.166 75.9315 198.617 78.1043 216.312C79.1922 225.171 80.258 233.607 81.0517 239.827C81.4486 242.938 81.7776 245.494 82.0073 247.274C82.1221 248.163 82.2122 248.859 82.2735 249.331C82.3042 249.568 82.3277 249.749 82.3435 249.871C82.3514 249.931 82.3574 249.978 82.3614 250.008C82.3634 250.024 82.365 250.036 82.366 250.043C82.3665 250.047 82.3669 250.05 82.3671 250.052C82.3672 250.053 82.3673 250.054 82.3674 250.054C82.3675 250.055 82.3675 250.055 83.3591 249.926C84.3508 249.797 84.3507 249.796 84.3507 249.796C84.3506 249.796 84.3505 249.795 84.3504 249.794C84.3501 249.792 84.3497 249.789 84.3492 249.785C84.3482 249.777 84.3467 249.766 84.3447 249.75C84.3407 249.72 84.3347 249.674 84.3268 249.613C84.311 249.491 84.2875 249.31 84.2569 249.074C84.1956 248.602 84.1056 247.907 83.9908 247.018C83.7612 245.239 83.4324 242.683 83.0357 239.574C82.2421 233.355 81.1768 224.923 80.0894 216.068C77.9119 198.335 75.6548 178.974 75.3047 172.25L73.3074 172.354ZM82.3625 250.008L84.1738 272.059L86.1671 271.895L84.3558 249.844L82.3625 250.008ZM84.8925 272.938L119.25 282.876L119.806 280.954L85.4483 271.017L84.8925 272.938ZM119.25 282.876C137.981 288.294 157.771 288.724 176.714 284.126L176.242 282.182C157.638 286.698 138.202 286.276 119.806 280.954L119.25 282.876ZM177.461 282.973L173.378 260.85L171.411 261.213L175.494 283.336L177.461 282.973ZM172.395 261.032C173.381 261.194 173.381 261.194 173.382 261.193C173.382 261.192 173.382 261.191 173.382 261.189C173.383 261.186 173.383 261.182 173.384 261.176C173.386 261.163 173.389 261.145 173.393 261.121C173.401 261.072 173.413 261 173.429 260.904C173.46 260.713 173.506 260.43 173.565 260.061C173.684 259.323 173.857 258.241 174.074 256.861C174.507 254.103 175.114 250.157 175.812 245.41C177.207 235.915 178.964 223.206 180.41 210.355C181.855 197.512 182.992 184.499 183.142 174.408C183.217 169.369 183.047 165.014 182.533 161.759C182.276 160.134 181.926 158.735 181.452 157.646C180.989 156.581 180.336 155.651 179.374 155.224L178.562 157.052C178.844 157.177 179.23 157.551 179.618 158.444C179.996 159.312 180.313 160.525 180.557 162.071C181.045 165.157 181.217 169.377 181.143 174.379C180.994 184.37 179.866 197.305 178.422 210.132C176.98 222.952 175.226 235.637 173.833 245.119C173.136 249.859 172.53 253.798 172.098 256.551C171.882 257.928 171.709 259.008 171.591 259.743C171.531 260.111 171.486 260.393 171.455 260.583C171.439 260.678 171.428 260.749 171.42 260.797C171.416 260.821 171.413 260.84 171.411 260.852C171.41 260.858 171.409 260.862 171.409 260.865C171.408 260.867 171.408 260.868 171.408 260.868C171.408 260.869 171.408 260.869 172.395 261.032ZM179.374 155.224C174.288 152.965 170.133 152.149 167.225 151.903C165.771 151.78 164.631 151.799 163.844 151.852C163.451 151.878 163.146 151.913 162.934 151.942C162.828 151.956 162.746 151.969 162.687 151.979C162.658 151.984 162.635 151.988 162.617 151.992C162.609 151.993 162.602 151.995 162.596 151.996C162.593 151.996 162.591 151.997 162.589 151.997C162.588 151.997 162.587 151.997 162.586 151.998C162.586 151.998 162.585 151.998 162.585 151.998C162.584 151.998 162.584 151.998 162.783 152.978C162.982 153.958 162.981 153.958 162.981 153.958C162.981 153.958 162.98 153.958 162.98 153.958C162.98 153.958 162.979 153.959 162.979 153.959C162.978 153.959 162.978 153.959 162.979 153.959C162.979 153.959 162.981 153.958 162.984 153.958C162.991 153.956 163.004 153.954 163.023 153.951C163.06 153.944 163.121 153.935 163.205 153.923C163.373 153.9 163.632 153.871 163.978 153.847C164.669 153.801 165.708 153.782 167.056 153.896C169.75 154.123 173.687 154.887 178.562 157.052L179.374 155.224ZM163.446 152.23L150.962 141.171L149.635 142.668L162.12 153.727L163.446 152.23ZM150.272 140.92L114.202 141.867L114.254 143.867L150.325 142.919L150.272 140.92ZM171.742 118.256C171.742 123.053 170.651 126.324 168.805 128.592C166.956 130.863 164.241 132.262 160.725 133.094C157.2 133.929 152.959 134.174 148.159 134.202C145.764 134.217 143.248 134.177 140.627 134.134C138.009 134.091 135.289 134.044 132.501 134.044V136.044C135.269 136.044 137.973 136.09 140.594 136.134C143.212 136.177 145.75 136.217 148.17 136.202C152.999 136.174 157.429 135.93 161.186 135.04C164.953 134.148 168.132 132.586 170.355 129.855C172.582 127.121 173.742 123.349 173.742 118.256H171.742ZM132.501 134.044C129.713 134.044 126.992 134.091 124.374 134.134C121.753 134.177 119.237 134.217 116.843 134.202C112.043 134.174 107.801 133.929 104.276 133.094C100.76 132.262 98.0456 130.863 96.1968 128.592C94.3502 126.324 93.2589 123.053 93.2589 118.256H91.2589C91.2589 123.349 92.4198 127.121 94.6458 129.855C96.8697 132.586 100.049 134.148 103.815 135.04C107.572 135.93 112.002 136.174 116.831 136.202C119.251 136.217 121.789 136.177 124.407 136.134C127.029 136.09 129.732 136.044 132.501 136.044V134.044ZM93.2589 118.256C93.2589 108.48 95.4392 94.9475 101.467 83.8972C107.473 72.8872 117.241 64.4154 132.501 64.4154V62.4154C116.319 62.4154 105.966 71.474 99.7115 82.9394C93.479 94.3645 91.2589 108.252 91.2589 118.256H93.2589ZM132.501 64.4154C148.31 64.4154 158.072 72.8967 163.936 83.889C169.827 94.9324 171.742 108.463 171.742 118.256H173.742C173.742 108.269 171.799 94.3796 165.7 82.9476C159.575 71.4645 149.215 62.4154 132.501 62.4154V64.4154ZM152.707 86.786C162.899 97.1318 162.899 113.912 152.707 124.258L154.132 125.661C165.091 114.537 165.091 96.5068 154.132 85.3824L152.707 86.786ZM152.707 124.258C142.524 134.595 126.02 134.595 115.837 124.258L114.412 125.661C125.379 136.794 143.166 136.794 154.132 125.661L152.707 124.258ZM115.837 124.258C105.645 113.912 105.645 97.1318 115.837 86.786L114.412 85.3824C103.454 96.5068 103.454 114.537 114.412 125.661L115.837 124.258ZM115.837 86.786C126.02 76.4486 142.524 76.4486 152.707 86.786L154.132 85.3824C143.166 74.2497 125.379 74.2497 114.412 85.3824L115.837 86.786ZM101.079 105.826H111.79V103.826H101.079V105.826ZM112.733 105.158L117.458 91.7275L115.571 91.0637L110.846 104.494L112.733 105.158ZM115.517 91.4658L116.462 104.896L118.457 104.756L117.512 91.3254L115.517 91.4658ZM117.459 105.826H122.578V103.826H117.459V105.826ZM123.522 105.158L126.278 97.3235L124.391 96.6598L121.635 104.494L123.522 105.158ZM124.337 97.0618L124.888 104.896L126.884 104.756L126.332 96.9214L124.337 97.0618ZM125.886 105.826H163.923V103.826H125.886V105.826ZM164.923 104.826C164.923 96.848 161.801 89.1938 156.239 83.5479L154.815 84.9515C160.005 90.22 162.923 97.3688 162.923 104.826H164.923ZM156.239 83.5479C150.677 77.9016 143.13 74.7267 135.257 74.7267V76.7267C142.59 76.7267 149.625 79.6835 154.815 84.9515L156.239 83.5479ZM135.257 74.7267H129.745V76.7267H135.257V74.7267ZM129.745 74.7267C121.872 74.7267 114.325 77.9016 108.763 83.5479L110.188 84.9515C115.377 79.6835 122.412 76.7267 129.745 76.7267V74.7267ZM108.763 83.5479C103.201 89.1938 100.079 96.848 100.079 104.826H102.079C102.079 97.3689 104.998 90.22 110.188 84.9515L108.763 83.5479ZM105.513 147.026H159.671V145.026H105.513V147.026ZM158.671 146.026V212.377H160.671V146.026H158.671ZM159.671 211.377H105.513V213.377H159.671V211.377ZM106.513 212.377V146.026H104.513V212.377H106.513ZM107.563 334.756L112.656 348.211L114.526 347.503L109.433 334.048L107.563 334.756ZM113.836 348.827L167.386 335.289L166.896 333.35L113.346 346.888L113.836 348.827ZM168.076 333.966L160.559 314.106L158.689 314.814L166.205 334.674L168.076 333.966ZM159.261 313.529L108.134 333.47L108.861 335.333L159.987 315.392L159.261 313.529ZM110.591 329.636L120.621 356.135L122.491 355.427L112.462 328.928L110.591 329.636ZM120.61 356.105L120.611 356.107L122.502 355.458L122.502 355.457L120.61 356.105ZM120.621 356.136C122.223 360.37 122.103 365.078 120.287 369.222L122.119 370.025C124.145 365.401 124.279 360.152 122.492 355.428L120.621 356.136ZM120.287 369.222C118.471 373.365 115.11 376.602 110.949 378.226L111.675 380.089C116.337 378.27 120.092 374.648 122.119 370.025L120.287 369.222ZM110.949 378.226L110.408 378.436L111.135 380.3L111.675 380.089L110.949 378.226ZM111.707 379.014L95.2857 335.628L93.4152 336.336L109.836 379.722L111.707 379.014ZM94.7138 336.913L111.89 330.214L111.163 328.351L93.9871 335.05L94.7138 336.913ZM215.786 267.522C219.971 266.457 224.309 266.156 228.598 266.634L228.82 264.646C224.291 264.142 219.711 264.459 215.292 265.584L215.786 267.522ZM228.598 266.634C232.042 267.019 235.402 267.977 237.735 270.222L239.122 268.781C236.313 266.079 232.418 265.048 228.82 264.646L228.598 266.634ZM237.735 270.222C240.575 272.955 241.564 277.277 241.646 281.565L243.646 281.526C243.56 277.062 242.54 272.071 239.122 268.781L237.735 270.222ZM241.646 281.561C241.78 290.049 239.007 298.319 233.803 304.959L235.377 306.193C240.865 299.19 243.787 290.473 243.646 281.53L241.646 281.561ZM233.793 304.972C232.547 306.618 231.066 308.065 229.4 309.265L230.568 310.888C232.398 309.571 234.022 307.984 235.387 306.179L233.793 304.972ZM229.448 309.233C227.625 310.39 225.682 311.341 223.654 312.067L224.329 313.95C226.496 313.174 228.572 312.158 230.52 310.921L229.448 309.233ZM223.62 312.08L177.102 330.706L177.845 332.563L224.363 313.937L223.62 312.08ZM177.102 330.706C164.854 335.61 152.634 340.498 139.945 343.709L140.435 345.648C153.275 342.399 165.618 337.458 177.845 332.563L177.102 330.706ZM139.75 343.781C139.297 344.003 138.777 344.033 138.303 343.865L137.636 345.75C138.617 346.098 139.695 346.035 140.63 345.577L139.75 343.781ZM138.303 343.865C137.829 343.697 137.435 343.343 137.213 342.875L135.407 343.734C135.855 344.676 136.655 345.403 137.636 345.75L138.303 343.865ZM137.213 342.876C137.205 342.859 137.199 342.845 137.193 342.832L135.367 343.648C135.381 343.678 135.394 343.707 135.407 343.734L137.213 342.876ZM137.103 342.672C133.069 336.823 129.685 330.538 127.012 323.932L125.158 324.682C127.885 331.423 131.339 337.837 135.457 343.808L137.103 342.672ZM126.863 323.68C126.836 323.646 126.816 323.604 126.806 323.559L124.848 323.963C124.921 324.318 125.078 324.652 125.306 324.935L126.863 323.68ZM126.806 323.559C126.797 323.513 126.799 323.466 126.811 323.421L124.883 322.889C124.786 323.239 124.774 323.607 124.848 323.963L126.806 323.559ZM126.811 323.421C126.823 323.376 126.846 323.337 126.875 323.305L125.405 321.949C125.158 322.216 124.98 322.539 124.883 322.889L126.811 323.421ZM126.875 323.305C126.904 323.274 126.939 323.251 126.976 323.238L126.304 321.354C125.96 321.477 125.652 321.681 125.405 321.949L126.875 323.305ZM127.144 323.16L160.046 303.969L159.039 302.241L126.136 321.432L127.144 323.16ZM160.046 303.969C162.385 302.604 164.879 301.151 166.939 299.135L165.54 297.706C163.686 299.52 161.413 300.856 159.039 302.241L160.046 303.969ZM166.941 299.134C168.448 297.651 169.681 295.908 170.583 293.987L168.772 293.137C167.971 294.845 166.875 296.393 165.538 297.708L166.941 299.134ZM170.582 293.988C170.804 293.517 170.955 292.939 171.073 292.385C171.193 291.824 171.298 291.198 171.399 290.633C171.504 290.05 171.608 289.521 171.732 289.079C171.864 288.613 171.987 288.367 172.069 288.266L170.519 287.002C170.166 287.436 169.954 288.017 169.808 288.536C169.654 289.08 169.536 289.695 169.431 290.279C169.322 290.882 169.228 291.448 169.117 291.967C169.005 292.493 168.892 292.883 168.773 293.135L170.582 293.988ZM172.069 288.266C172.122 288.201 172.276 288.078 172.627 287.941C172.963 287.811 173.384 287.703 173.866 287.605C174.35 287.508 174.839 287.431 175.334 287.345C175.805 287.264 176.299 287.173 176.705 287.049L176.12 285.136C175.852 285.218 175.476 285.291 174.995 285.374C174.537 285.453 173.991 285.54 173.47 285.645C172.947 285.751 172.395 285.885 171.902 286.078C171.424 286.264 170.893 286.544 170.519 287.002L172.069 288.266ZM176.71 287.047C178.651 286.443 180.553 285.714 182.403 284.863L181.567 283.046C179.796 283.861 177.975 284.559 176.116 285.138L176.71 287.047ZM182.398 284.865C186.138 283.166 189.661 281.089 193.108 278.963C196.572 276.828 199.938 274.658 203.439 272.716L202.469 270.967C198.915 272.939 195.477 275.154 192.059 277.261C188.625 279.378 185.191 281.4 181.571 283.044L182.398 284.865ZM203.456 272.706C207.34 270.452 211.489 268.709 215.805 267.517L215.273 265.589C210.791 266.827 206.483 268.637 202.452 270.977L203.456 272.706ZM196.279 280.091C193.492 282.217 190.287 284.261 187.039 286.35C183.808 288.429 180.537 290.55 177.692 292.797L178.931 294.366C181.688 292.189 184.878 290.118 188.121 288.032C191.346 285.957 194.627 283.866 197.492 281.682L196.279 280.091ZM177.692 292.797C177.511 292.939 176.869 293.351 175.787 294.013C174.737 294.657 173.337 295.499 171.705 296.476C168.443 298.431 164.26 300.924 160.124 303.446C155.99 305.967 151.888 308.524 148.787 310.605C147.24 311.645 145.923 312.577 144.973 313.334C144.5 313.711 144.096 314.061 143.794 314.372C143.644 314.527 143.502 314.689 143.387 314.854C143.282 315.003 143.144 315.233 143.091 315.515L145.057 315.882C145.033 316.013 144.983 316.061 145.026 316C145.058 315.954 145.121 315.877 145.229 315.765C145.445 315.543 145.774 315.253 146.219 314.899C147.106 314.193 148.369 313.296 149.902 312.266C152.965 310.21 157.035 307.672 161.165 305.154C165.293 302.637 169.466 300.149 172.732 298.192C174.364 297.215 175.772 296.368 176.832 295.719C177.861 295.088 178.633 294.601 178.931 294.366L177.692 292.797ZM143.905 316.684C144.428 316.774 145.018 316.699 145.597 316.563C146.195 316.423 146.873 316.195 147.609 315.902C149.082 315.315 150.869 314.435 152.849 313.363C156.812 311.218 161.637 308.257 166.428 305.207C171.221 302.155 176.001 299.001 179.869 296.469C183.777 293.912 186.682 292.04 187.803 291.484L186.916 289.692C185.656 290.316 182.613 292.284 178.774 294.796C174.897 297.333 170.133 300.477 165.353 303.52C160.571 306.564 155.795 309.494 151.896 311.605C149.945 312.661 148.236 313.499 146.869 314.044C146.185 314.316 145.607 314.507 145.141 314.616C144.656 314.73 144.374 314.735 144.243 314.713L143.905 316.684ZM187.803 291.484C192.676 289.071 196.98 285.675 201.15 282.384L199.911 280.814C195.713 284.128 191.57 287.387 186.916 289.692L187.803 291.484ZM201.15 282.384C201.39 282.195 201.803 281.927 202.381 281.52C202.914 281.145 203.537 280.683 204.037 280.197C204.288 279.954 204.534 279.679 204.724 279.382C204.91 279.093 205.09 278.71 205.102 278.264C205.114 277.773 204.918 277.328 204.562 276.986C204.237 276.674 203.808 276.472 203.349 276.331L202.761 278.242C203.068 278.337 203.166 278.419 203.176 278.428C203.176 278.428 203.17 278.422 203.161 278.41C203.152 278.396 203.141 278.378 203.13 278.354C203.109 278.303 203.101 278.252 203.102 278.213C203.104 278.15 203.124 278.173 203.041 278.302C202.964 278.423 202.834 278.578 202.644 278.762C202.264 279.132 201.749 279.519 201.23 279.885C200.756 280.218 200.205 280.582 199.911 280.814L201.15 282.384ZM203.349 276.331C202.571 276.092 201.773 276.312 201.141 276.589C200.482 276.877 199.815 277.313 199.209 277.759C198.597 278.209 198.006 278.7 197.504 279.117C196.98 279.554 196.591 279.878 196.325 280.058L197.446 281.714C197.817 281.464 198.301 281.056 198.784 280.654C199.29 280.233 199.837 279.779 200.393 279.37C200.955 278.958 201.484 278.622 201.944 278.42C202.432 278.207 202.677 278.216 202.761 278.242L203.349 276.331ZM316.941 94.82C316.941 105.187 308.666 113.566 298.489 113.566V115.566C309.798 115.566 318.941 106.264 318.941 94.82H316.941ZM298.489 113.566C288.313 113.566 280.037 105.187 280.037 94.82H278.037C278.037 106.264 287.18 115.566 298.489 115.566V113.566ZM280.037 94.82C280.037 84.4526 288.313 76.0739 298.489 76.0739V74.0739C287.18 74.0739 278.037 83.3764 278.037 94.82H280.037ZM298.489 76.0739C308.666 76.0739 316.941 84.4526 316.941 94.82H318.941C318.941 83.3764 309.798 74.0739 298.489 74.0739V76.0739ZM275.134 104.251C275.134 111.363 269.458 117.102 262.489 117.102V119.102C270.591 119.102 277.134 112.439 277.134 104.251H275.134ZM262.489 117.102C255.519 117.102 249.843 111.363 249.843 104.251H247.843C247.843 112.439 254.386 119.102 262.489 119.102V117.102ZM249.843 104.251C249.843 97.1387 255.519 91.399 262.489 91.399V89.399C254.386 89.399 247.843 96.0626 247.843 104.251H249.843ZM262.489 91.399C269.458 91.399 275.134 97.1387 275.134 104.251H277.134C277.134 96.0625 270.591 89.399 262.489 89.399V91.399ZM22.4701 97.9598C22.4701 103.556 18.0051 108.066 12.5289 108.066V110.066C19.1379 110.066 24.4701 104.632 24.4701 97.9598H22.4701ZM12.5289 108.066C7.05274 108.066 2.58789 103.556 2.58789 97.9598H0.587891C0.587891 104.632 5.91995 110.066 12.5289 110.066V108.066ZM2.58789 97.9598C2.58789 92.3639 7.05274 87.8532 12.5289 87.8532V85.8532C5.91995 85.8532 0.587891 91.2878 0.587891 97.9598H2.58789ZM12.5289 87.8532C18.0051 87.8532 22.4701 92.3639 22.4701 97.9598H24.4701C24.4701 91.2877 19.1379 85.8532 12.5289 85.8532V87.8532ZM37.2173 108.743C37.2173 112.508 34.2147 115.535 30.5424 115.535V117.535C35.3476 117.535 39.2173 113.584 39.2173 108.743H37.2173ZM30.5424 115.535C26.8699 115.535 23.8673 112.508 23.8673 108.743H21.8673C21.8673 113.584 25.7372 117.535 30.5424 117.535V115.535ZM23.8673 108.743C23.8673 104.979 26.8699 101.952 30.5424 101.952V99.9522C25.7372 99.9522 21.8673 103.902 21.8673 108.743H23.8673ZM30.5424 101.952C34.2148 101.952 37.2173 104.979 37.2173 108.743H39.2173C39.2173 103.902 35.3476 99.9522 30.5424 99.9522V101.952ZM144.044 9.49008C144.044 13.641 140.733 16.9802 136.681 16.9802V18.9802C141.866 18.9802 146.044 14.7171 146.044 9.49008H144.044ZM136.681 16.9802C132.628 16.9802 129.317 13.641 129.317 9.49008H127.317C127.317 14.7171 131.495 18.9802 136.681 18.9802V16.9802ZM129.317 9.49008C129.317 5.33918 132.628 2 136.681 2V0C131.495 0 127.317 4.2631 127.317 9.49008H129.317ZM136.681 2C140.733 2 144.044 5.3392 144.044 9.49008H146.044C146.044 4.26308 141.866 0 136.681 0V2ZM87.8308 188.492L88.5784 182.634L86.5945 182.381L85.8469 188.239L87.8308 188.492ZM87.5864 182.507C87.5125 183.505 87.5125 183.505 87.5126 183.505C87.5128 183.505 87.5129 183.505 87.5133 183.505C87.514 183.505 87.5151 183.505 87.5166 183.505C87.5196 183.505 87.5243 183.506 87.5307 183.506C87.5434 183.507 87.5626 183.508 87.5882 183.51C87.6394 183.515 87.7159 183.521 87.816 183.529C88.0161 183.545 88.3102 183.571 88.6836 183.605C89.4307 183.675 90.4944 183.782 91.7578 183.932C94.2881 184.232 97.6037 184.704 100.775 185.387C103.974 186.077 106.918 186.961 108.773 188.047C109.708 188.594 110.236 189.118 110.454 189.574C110.632 189.944 110.658 190.374 110.269 190.994L111.963 192.056C112.664 190.939 112.772 189.783 112.258 188.71C111.785 187.722 110.85 186.945 109.783 186.32C107.635 185.064 104.424 184.128 101.196 183.432C97.9398 182.73 94.556 182.25 91.9936 181.946C90.7107 181.794 89.6298 181.685 88.8687 181.614C88.4882 181.579 88.1874 181.553 87.9811 181.536C87.878 181.527 87.7984 181.521 87.7444 181.517C87.7173 181.514 87.6967 181.513 87.6826 181.512C87.6755 181.511 87.6701 181.511 87.6664 181.511C87.6646 181.51 87.6631 181.51 87.6621 181.51C87.6616 181.51 87.6612 181.51 87.6609 181.51C87.6606 181.51 87.6603 181.51 87.5864 182.507ZM110.269 190.994C108.273 194.177 104.804 195.974 101.706 196.971C100.171 197.465 98.7642 197.751 97.7415 197.913C9z7.231 197.994 96.8185 198.044 96.5365 198.073C96.3955 198.087 96.2873 198.097 96.2159 198.103C96.1803 198.105 96.1538 198.107 96.1371 198.109C96.1287 198.109 96.1228 198.11 96.1194 198.11C96.1177 198.11 96.1166 198.11 96.1161 198.11C96.1159 198.11 96.1158 198.11 96.1159 198.11C96.116 198.11 96.1161 198.11 96.1162 198.11C96.1164 198.11 96.1167 198.11 96.1763 199.108C96.2359 200.106 96.2362 200.106 96.2366 200.106C96.2368 200.106 96.2372 200.106 96.2376 200.106C96.2383 200.106 96.2392 200.106 96.2403 200.106C96.2424 200.106 96.2451 200.106 96.2485 200.106C96.2553 200.105 96.2646 200.104 96.2764 200.104C96.3 200.102 96.3335 200.1 96.3764 200.096C96.4622 200.089 96.5856 200.078 96.7425 200.062C97.0562 200.03 97.5045 199.976 98.0542 199.888C99.1519 199.715 100.663 199.408 102.319 198.875C105.601 197.819 109.602 195.824 111.963 192.056L110.269 190.994ZM96.931 198.452L87.5936 187.709L86.0841 189.021L95.4215 199.764L96.931 198.452ZM107.778 163.888C109.227 164.05 110.623 164.536 111.866 165.311L112.924 163.613C111.428 162.681 109.747 162.096 108 161.901L107.778 163.888ZM111.866 165.311C113.109 166.086 114.17 167.131 114.97 168.373L116.651 167.29C115.692 165.802 114.42 164.546 112.924 163.613L111.866 165.311ZM114.969 168.373C115.698 169.506 116.195 170.778 116.428 172.113L118.398 171.768C118.119 170.172 117.525 168.649 116.651 167.291L114.969 168.373ZM116.428 172.113C116.661 173.447 116.626 174.816 116.325 176.136L118.275 176.58C118.635 175.001 118.677 173.364 118.398 171.768L116.428 172.113ZM116.325 176.136C116.024 177.456 115.464 178.7 114.678 179.793L116.302 180.961C117.244 179.649 117.915 178.16 118.275 176.58L116.325 176.136ZM114.678 179.793C113.893 180.887 112.898 181.806 111.755 182.498L112.791 184.209C114.166 183.377 115.36 182.272 116.302 180.961L114.678 179.793ZM111.759 182.496C111.341 182.746 110.905 182.964 110.455 183.146L111.207 184.999C111.753 184.778 112.281 184.515 112.787 184.211L111.759 182.496ZM109.88 183.766L92.7383 236.991L94.642 237.604L111.783 184.379L109.88 183.766ZM92.7862 236.87C92.3453 237.803 91.7277 238.636 90.9697 239.324L92.3133 240.805C93.2669 239.94 94.0417 238.894 94.5942 237.725L92.7862 236.87ZM90.9697 239.324C90.2117 240.011 89.3281 240.539 88.3701 240.878L89.0366 242.763C90.2462 242.336 91.3597 241.67 92.3133 240.805L90.9697 239.324ZM88.3701 240.878C87.4121 241.216 86.3981 241.359 85.3861 241.298L85.2664 243.295C86.5457 243.372 87.827 243.191 89.0366 242.763L88.3701 240.878ZM85.3861 241.298C84.3741 241.238 83.3834 240.975 82.4709 240.524L81.5848 242.317C82.736 242.886 83.9872 243.218 85.2664 243.295L85.3861 241.298ZM82.4709 240.524C81.5584 240.073 80.7417 239.443 80.0681 238.669L78.5596 239.982C79.4058 240.954 80.4336 241.748 81.5848 242.317L82.4709 240.524ZM80.0681 238.669C79.3946 237.895 78.8776 236.993 78.5477 236.014L76.6525 236.653C77.0655 237.878 77.7133 239.01 78.5596 239.982L80.0681 238.669ZM78.5477 236.014C78.2178 235.035 78.0817 233.999 78.1474 232.966L76.1514 232.839C76.0693 234.131 76.2395 235.427 76.6525 236.653L78.5477 236.014ZM78.1474 232.966C78.2131 231.933 78.4793 230.924 78.9302 229.996L77.1316 229.122C76.5665 230.284 76.2336 231.547 76.1514 232.839L78.1474 232.966ZM78.9758 229.886L97.2049 177.252L95.3151 176.598L77.086 229.232L78.9758 229.886ZM97.2217 176.651C96.7696 175.065 96.7094 173.39 97.0466 171.775L95.0889 171.367C94.6854 173.299 94.7573 175.302 95.2983 177.199L97.2217 176.651ZM97.0466 171.775C97.3839 170.16 98.1078 168.656 99.1531 167.395L97.6133 166.118C96.3589 167.632 95.4923 169.434 95.0889 171.367L97.0466 171.775ZM99.1531 167.395C100.198 166.134 101.532 165.155 103.036 164.544L102.284 162.691C100.472 163.427 98.8677 164.605 97.6133 166.118L99.1531 167.395ZM103.036 164.544C104.54 163.933 106.169 163.708 107.778 163.888L108.001 161.901C106.06 161.683 104.096 161.955 102.284 162.691L103.036 164.544ZM87.0938 183.008C86.2274 183.507 86.2277 183.508 86.228 183.508C86.2281 183.508 86.2284 183.509 86.2287 183.509C86.2293 183.51 86.23 183.512 86.2309 183.513C86.2326 183.516 86.235 183.52 86.238 183.525C86.2439 183.535 86.2522 183.55 86.2629 183.568C86.2843 183.604 86.3152 183.655 86.3556 183.721C86.4362 183.852 86.5544 184.04 86.7088 184.274C87.0175 184.742 87.472 185.396 88.062 186.152C89.2386 187.659 90.9706 189.593 93.1771 191.259C95.383 192.924 98.0995 194.35 101.236 194.779C104.392 195.211 107.896 194.623 111.63 192.384L110.601 190.669C107.235 192.688 104.186 193.164 101.507 192.797C98.8081 192.428 96.4067 191.191 94.3822 189.663C92.3582 188.134 90.7473 186.341 89.6386 184.921C89.0859 184.213 88.6622 183.603 88.3783 183.172C88.2364 182.957 88.1297 182.788 88.0595 182.673C88.0244 182.616 87.9984 182.573 87.9818 182.545C87.9735 182.531 87.9675 182.521 87.9639 182.515C87.9621 182.512 87.9608 182.51 87.9602 182.508C87.9599 182.508 87.9597 182.508 87.9597 182.508C87.9597 182.508 87.9598 182.508 87.9598 182.508C87.9599 182.508 87.9601 182.508 87.0938 183.008ZM110.147 191.277L96.3856 244.737L98.3224 245.235L112.084 191.776L110.147 191.277ZM97.354 243.986H85.7596V245.986H97.354V243.986ZM85.9459 244.004L73.9518 241.73L73.5792 243.695L85.5734 245.969L85.9459 244.004ZM74.7541 242.862L78.1124 220.775L76.1351 220.474L72.7769 242.562L74.7541 242.862ZM78.0904 220.881L88.0604 183.264L86.1271 182.752L76.1572 220.368L78.0904 220.881ZM158.037 194.067L149.9 182.727L148.276 183.893L156.412 195.233L158.037 194.067ZM149.088 183.31C150.037 183.625 150.037 183.626 150.037 183.627C150.037 183.627 150.036 183.627 150.036 183.627C150.036 183.628 150.036 183.628 150.036 183.628C150.036 183.628 150.036 183.628 150.037 183.627C150.037 183.624 150.039 183.619 150.042 183.611C150.047 183.596 150.057 183.57 150.07 183.534C150.097 183.463 150.141 183.354 150.202 183.213C150.325 182.93 150.52 182.523 150.8 182.043C151.361 181.081 152.254 179.843 153.58 178.734C156.184 176.556 160.606 174.745 167.889 176.811L168.435 174.887C160.555 172.652 155.439 174.572 152.297 177.2C150.751 178.493 149.718 179.927 149.072 181.036C148.748 181.591 148.519 182.069 148.369 182.413C148.294 182.585 148.239 182.725 148.201 182.824C148.182 182.873 148.168 182.913 148.157 182.941C148.152 182.956 148.148 182.968 148.145 182.976C148.144 182.981 148.142 182.985 148.141 182.988C148.141 182.989 148.14 182.99 148.14 182.992C148.14 182.992 148.14 182.993 148.14 182.993C148.139 182.994 148.139 182.994 149.088 183.31ZM168.162 175.849C167.247 176.252 167.247 176.252 167.247 176.252C167.247 176.252 167.247 176.252 167.247 176.252C167.247 176.252 167.247 176.253 167.247 176.253C167.248 176.255 167.249 176.258 167.251 176.263C167.255 176.271 167.261 176.285 167.269 176.304C167.285 176.341 167.309 176.399 167.34 176.475C167.403 176.626 167.493 176.851 167.601 177.138C167.817 177.712 168.105 178.531 168.388 179.505C168.958 181.467 169.49 183.995 169.414 186.39C169.338 188.789 168.661 190.896 166.988 192.254C165.309 193.617 162.388 194.422 157.375 193.661L157.075 195.638C162.354 196.44 165.947 195.675 168.249 193.807C170.556 191.933 171.328 189.144 171.413 186.453C171.498 183.757 170.904 180.999 170.308 178.947C170.008 177.914 169.703 177.045 169.472 176.433C169.357 176.126 169.259 175.883 169.19 175.715C169.156 175.631 169.128 175.565 169.109 175.52C169.099 175.498 169.092 175.48 169.087 175.468C169.084 175.461 169.082 175.457 169.08 175.453C169.079 175.451 169.079 175.45 169.078 175.449C169.078 175.448 169.078 175.448 169.078 175.447C169.077 175.447 169.077 175.446 168.162 175.849ZM158.952 155.934C161.081 156.939 162.787 158.687 163.757 160.865L165.584 160.052C164.421 157.441 162.372 155.337 159.806 154.126L158.952 155.934ZM163.757 160.865C164.727 163.044 164.895 165.504 164.229 167.798L166.15 168.356C166.947 165.609 166.746 162.662 165.584 160.052L163.757 160.865ZM164.244 168.404L182.474 221.038L184.363 220.384L166.134 167.75L164.244 168.404ZM182.519 221.148C182.97 222.076 183.236 223.085 183.302 224.118L185.298 223.991C185.216 222.699 184.883 221.436 184.318 220.274L182.519 221.148ZM183.302 224.118C183.368 225.151 183.232 226.187 182.902 227.166L184.797 227.805C185.21 226.579 185.38 225.283 185.298 223.991L183.302 224.118ZM182.902 227.166C182.572 228.145 182.055 229.047 181.382 229.821L182.89 231.134C183.736 230.162 184.384 229.031 184.797 227.805L182.902 227.166ZM181.382 229.821C180.708 230.595 179.891 231.225 178.979 231.676L179.865 233.469C181.016 232.9 182.044 232.107 182.89 231.134L181.382 229.821ZM178.979 231.676C178.066 232.127 177.075 232.39 176.063 232.451L176.183 234.448C177.462 234.371 178.714 234.038 179.865 233.469L178.979 231.676ZM176.063 232.451C175.051 232.512 174.037 232.369 173.079 232.03L172.413 233.916C173.622 234.343 174.904 234.524 176.183 234.448L176.063 232.451ZM173.079 232.03C172.121 231.691 171.238 231.164 170.48 230.476L169.136 231.957C170.09 232.822 171.203 233.488 172.413 233.916L173.079 232.03ZM170.48 230.476C169.722 229.788 169.104 228.955 168.663 228.022L166.855 228.877C167.408 230.046 168.182 231.093 169.136 231.957L170.48 230.476ZM168.711 228.143L151.57 174.918L149.666 175.532L166.807 228.756L168.711 228.143ZM150.994 174.298C150.544 174.116 150.108 173.898 149.691 173.648L148.662 175.363C149.168 175.667 149.696 175.93 150.242 176.152L150.994 174.298ZM149.694 173.65C148.551 172.958 147.557 172.039 146.771 170.946L145.147 172.113C146.089 173.424 147.284 174.529 148.659 175.361L149.694 173.65ZM146.771 170.946C145.986 169.852 145.425 168.608 145.124 167.288L143.174 167.732C143.534 169.312 144.205 170.802 145.147 172.113L146.771 170.946ZM145.124 167.288C144.823 165.968 144.788 164.599 145.022 163.265L143.051 162.921C142.773 164.517 142.814 166.153 143.174 167.732L145.124 167.288ZM145.022 163.265C145.255 161.93 145.751 160.658 146.48 159.525L144.798 158.443C143.924 159.802 143.33 161.325 143.051 162.921L145.022 163.265ZM146.48 159.526C147.28 158.283 148.34 157.238 149.583 156.463L148.525 154.766C147.03 155.698 145.757 156.954 144.798 158.443L146.48 159.526ZM149.583 156.463C150.827 155.688 152.223 155.202 153.671 155.041L153.449 153.053C151.703 153.248 150.021 153.833 148.525 154.766L149.583 156.463ZM153.674 155.04C155.478 154.833 157.304 155.141 158.945 155.931L159.813 154.129C157.831 153.175 155.626 152.802 153.446 153.053L153.674 155.04ZM149.088 183.31C148.564 184.161 148.564 184.162 148.565 184.162C148.565 184.162 148.565 184.163 148.566 184.163C148.567 184.163 148.568 184.164 148.57 184.165C148.572 184.167 148.576 184.169 148.58 184.172C148.589 184.177 148.601 184.184 148.617 184.193C148.647 184.211 148.69 184.237 148.746 184.268C148.856 184.331 149.015 184.419 149.217 184.523C149.62 184.731 150.198 185.008 150.908 185.287C152.321 185.842 154.295 186.424 156.482 186.478C158.679 186.533 161.109 186.054 163.372 184.47C165.632 182.888 167.639 180.265 169.103 176.187L167.221 175.511C165.861 179.298 164.07 181.54 162.225 182.832C160.382 184.121 158.396 184.525 156.531 184.479C154.655 184.432 152.92 183.929 151.64 183.426C151.003 183.175 150.488 182.928 150.135 182.746C149.959 182.655 149.824 182.58 149.735 182.53C149.69 182.505 149.657 182.485 149.637 182.473C149.626 182.467 149.619 182.463 149.615 182.46C149.613 182.459 149.612 182.458 149.611 182.458C149.611 182.458 149.611 182.458 149.611 182.458C149.611 182.458 149.612 182.458 149.612 182.458C149.612 182.458 149.612 182.459 149.088 183.31ZM167.225 176.2L186.142 226.762L188.015 226.061L169.099 175.499L167.225 176.2ZM186.207 225.92L180.586 235.9L182.329 236.881L187.95 226.902L186.207 225.92ZM181.373 235.394L180.56 235.463L180.729 237.456L181.542 237.387L181.373 235.394ZM180.56 235.463C177.371 235.733 174.164 235.213 171.216 233.947L170.427 235.785C173.676 237.18 177.212 237.754 180.729 237.456L180.56 235.463ZM171.216 233.947C168.267 232.681 165.663 230.707 163.629 228.193L162.074 229.451C164.311 232.216 167.177 234.39 170.427 235.785L171.216 233.947ZM163.629 228.193C159.377 222.937 156.482 216.688 155.206 210.009L153.242 210.384C154.579 217.385 157.614 223.938 162.074 229.451L163.629 228.193ZM155.206 210.009L150.07 183.122L148.106 183.498L153.242 210.384L155.206 210.009Z" fill="white"/>
</svg>
