<svg width="377" height="420" viewBox="0 0 377 420" fill="none" xmlns="http://www.w3.org/2000/svg">
<path d="M-1.79562 342.5L-0.882717 342.908L-0.253098 341.5H-1.79562V342.5ZM-8 383.5L-7.21483 384.119L-7.01181 383.862L-7.00059 383.534L-8 383.5ZM12.7897 263.055L11.8058 262.876L11.8051 262.88L12.7897 263.055ZM39.3971 205.227L40.2197 204.658L39.6428 203.823L38.8167 204.412L39.3971 205.227ZM40.1121 206.261L40.6925 207.075L41.4952 206.503L40.9347 205.692L40.1121 206.261ZM25.1777 304.666L26.1119 305.023L26.1744 304.86L26.1776 304.684L25.1777 304.666ZM-8 391.5L-8.99982 391.481L-7.06586 391.857L-8 391.5ZM37.5298 261.139L38.3524 260.571L37.7756 259.736L36.9494 260.325L37.5298 261.139ZM38.2446 262.174L38.825 262.988L39.6277 262.416L39.0673 261.605L38.2446 262.174ZM22.2759 210.163L23.2642 210.011L22.2759 210.163ZM20.3967 224.534L19.6523 225.202L20.6787 226.346L21.3089 224.944L20.3967 224.534ZM16.1602 197.064L16.9046 196.396L15.8782 195.252L15.248 196.654L16.1602 197.064ZM42.6237 228.586L42.9525 229.53L42.6237 228.586ZM28.3567 229.211L27.5605 228.606L26.6544 229.799L28.103 230.179L28.3567 229.211ZM54.2649 220.19L55.0611 220.795L55.9671 219.603L54.5186 219.223L54.2649 220.19ZM42.8534 276.715L43.1572 277.668L43.1823 277.66L43.207 277.651L42.8534 276.715ZM32.8535 277.154L32.0626 276.542L31.101 277.785L32.6341 278.129L32.8535 277.154ZM51.0129 270.831L51.7877 271.463L52.7807 270.246L51.2581 269.861L51.0129 270.831ZM-36 419L-36.9129 418.592L-35.2148 419.619L-36 419ZM-7.00059 383.534C-6.88291 380.1 -5.69109 371.754 -3.90769 360.86C-2.12974 349.999 0.222008 336.686 2.63647 323.375C7.46113 296.777 12.5453 270.14 13.7742 263.23L11.8051 262.88C10.5731 269.807 5.50314 296.366 0.668587 323.018C-1.74655 336.333 -4.10069 349.659 -5.88142 360.536C-7.65669 371.381 -8.87633 379.874 -8.99941 383.466L-7.00059 383.534ZM13.7736 263.234C19.1508 233.644 28.0489 214.543 39.9775 206.041L38.8167 204.412C26.2017 213.404 17.1958 233.216 11.8058 262.876L13.7736 263.234ZM38.5745 205.795L39.2895 206.83L40.9347 205.692L40.2197 204.658L38.5745 205.795ZM39.5316 205.447C32.1247 210.726 25.2002 222.024 19.1328 235.764C13.0415 249.559 7.73452 266.005 3.64679 281.792C-0.440815 297.578 -3.31873 312.742 -4.54035 323.978C-5.15013 329.586 -5.35294 334.266 -5.07126 337.569C-4.93141 339.209 -4.66617 340.594 -4.22131 341.599C-3.78375 342.588 -3.02274 343.5 -1.79562 343.5V341.5C-1.8329 341.5 -2.0748 341.507 -2.39241 340.79C-2.70272 340.089 -2.9449 338.966 -3.07849 337.399C-3.34367 334.289 -3.15738 329.762 -2.55207 324.194C-1.34354 313.078 1.5126 298.013 5.58294 282.293C9.65316 266.574 14.928 250.238 20.9624 236.572C27.0207 222.852 33.7659 212.012 40.6925 207.075L39.5316 205.447ZM24.2436 304.309L-8.93414 391.143L-7.06586 391.857L26.1119 305.023L24.2436 304.309ZM-7.00018 391.519C-7.0019 391.609 -7.01761 391.658 -6.99542 391.55C-6.98204 391.484 -6.96057 391.388 -6.92992 391.258C-6.86897 390.999 -6.77736 390.629 -6.65586 390.153C-6.41318 389.202 -6.0554 387.843 -5.59494 386.13C-4.67424 382.706 -3.34546 377.879 -1.71125 372.095C1.55725 360.526 6.0457 345.139 10.9323 329.512C15.82 313.882 21.1012 298.028 25.9551 285.519C28.3828 279.263 30.696 273.864 32.7925 269.755C33.841 267.701 34.8266 265.986 35.7363 264.655C36.6571 263.307 37.455 262.421 38.1102 261.954L36.9494 260.325C36.0056 260.998 35.0488 262.116 34.085 263.526C33.1101 264.953 32.0813 266.749 31.011 268.846C28.8701 273.042 26.5288 278.513 24.0906 284.796C19.2126 297.366 13.9158 313.27 9.02345 328.915C4.12996 344.564 -0.363827 359.97 -3.6359 371.551C-5.27197 377.341 -6.60306 382.177 -7.52633 385.611C-7.98786 387.327 -8.34809 388.696 -8.59376 389.658C-8.71642 390.139 -8.81158 390.523 -8.87677 390.8C-8.90919 390.938 -8.93562 391.055 -8.95459 391.147C-8.96476 391.197 -8.99727 391.348 -8.99982 391.481L-7.00018 391.519ZM36.7072 261.708L37.422 262.742L39.0673 261.605L38.3524 260.571L36.7072 261.708ZM37.6642 261.359C34.3709 263.706 31.9291 267.638 30.1003 272.076C28.2635 276.533 26.9987 281.615 26.1262 286.395C24.3809 295.958 24.1814 304.455 24.1779 304.648L26.1776 304.684C26.1776 304.684 26.1776 304.684 26.1776 304.684C26.1776 304.683 26.1776 304.683 26.1776 304.682C26.1777 304.68 26.1777 304.678 26.1778 304.675C26.1779 304.669 26.1781 304.661 26.1783 304.651C26.1788 304.631 26.1795 304.603 26.1805 304.567C26.1825 304.496 26.1856 304.395 26.19 304.264C26.199 304.003 26.2135 303.627 26.2363 303.151C26.2819 302.197 26.3603 300.841 26.4925 299.195C26.7569 295.902 27.2357 291.456 28.0937 286.754C28.9527 282.048 30.1862 277.116 31.9494 272.838C33.7205 268.54 35.9803 265.015 38.825 262.988L37.6642 261.359ZM52.42 200.055C52.42 203.007 50.0666 205.374 47.1951 205.374V207.374C51.1994 207.374 54.42 204.083 54.42 200.055H52.42ZM47.1951 205.374C44.3235 205.374 41.9701 203.007 41.9701 200.055H39.9701C39.9701 204.083 43.1907 207.374 47.1951 207.374V205.374ZM41.9701 200.055C41.9701 197.103 44.3235 194.736 47.1951 194.736V192.736C43.1907 192.736 39.9701 196.027 39.9701 200.055H41.9701ZM47.1951 194.736C50.0666 194.736 52.42 197.103 52.42 200.055H54.42C54.42 196.027 51.1994 192.736 47.1951 192.736V194.736ZM49.3372 254.401C49.3372 257.353 46.9837 259.721 44.1121 259.721V261.721C48.1164 261.721 51.3372 258.429 51.3372 254.401H49.3372ZM44.1121 259.721C41.2405 259.721 38.8871 257.353 38.8871 254.401H36.8871C36.8871 258.429 40.1077 261.721 44.1121 261.721V259.721ZM38.8871 254.401C38.8871 251.449 41.2405 249.082 44.1121 249.082V247.082C40.1077 247.082 36.8871 250.373 36.8871 254.401H38.8871ZM44.1121 249.082C46.9837 249.082 49.3372 251.449 49.3372 254.401H51.3372C51.3372 250.373 48.1164 247.082 44.1121 247.082V249.082ZM21.2876 210.316C21.8468 213.942 21.3993 217.399 20.8011 219.966C20.5029 221.246 20.1696 222.295 19.9124 223.021C19.7838 223.383 19.6745 223.664 19.5985 223.852C19.5605 223.946 19.5308 224.017 19.5113 224.062C19.5015 224.085 19.4942 224.102 19.4897 224.112C19.4874 224.118 19.4859 224.121 19.485 224.123C19.4846 224.124 19.4843 224.125 19.4843 224.125C19.4842 224.125 19.4842 224.125 19.4843 224.125C19.4843 224.125 19.4844 224.124 19.4844 224.124C19.4845 224.124 19.4846 224.124 20.3967 224.534C21.3089 224.944 21.309 224.943 21.3091 224.943C21.3092 224.943 21.3093 224.943 21.3094 224.942C21.3097 224.942 21.31 224.941 21.3103 224.94C21.311 224.939 21.3118 224.937 21.3129 224.935C21.3149 224.93 21.3177 224.924 21.3212 224.916C21.3281 224.9 21.3379 224.878 21.3501 224.849C21.3746 224.792 21.4093 224.709 21.4524 224.603C21.5385 224.39 21.6583 224.081 21.7974 223.689C22.0753 222.906 22.4311 221.784 22.7489 220.42C23.3828 217.699 23.8749 213.971 23.2642 210.011L21.2876 210.316ZM20.3967 224.534C21.1411 223.866 21.1413 223.866 21.1415 223.866C21.1415 223.866 21.1416 223.867 21.1417 223.867C21.1418 223.867 21.1418 223.867 21.1417 223.867C21.1416 223.867 21.1412 223.866 21.1405 223.865C21.1391 223.864 21.1366 223.861 21.1329 223.857C21.1255 223.848 21.1136 223.835 21.0974 223.816C21.0651 223.779 21.0156 223.721 20.9512 223.643C20.8224 223.488 20.6338 223.255 20.4024 222.949C19.9393 222.339 19.3063 221.444 18.6372 220.318C17.295 218.059 15.8284 214.907 15.2692 211.282L13.2926 211.587C13.9033 215.547 15.4945 218.944 16.9179 221.339C17.6314 222.54 18.3081 223.498 18.8089 224.158C19.0594 224.488 19.2664 224.745 19.4126 224.921C19.4858 225.009 19.5437 225.077 19.5844 225.124C19.6047 225.147 19.6207 225.166 19.6321 225.179C19.6378 225.185 19.6424 225.19 19.6458 225.194C19.6474 225.196 19.6488 225.198 19.6499 225.199C19.6505 225.199 19.651 225.2 19.6513 225.2C19.6515 225.201 19.6518 225.201 19.6519 225.201C19.6521 225.201 19.6523 225.202 20.3967 224.534ZM15.2692 211.282C14.71 207.656 15.1575 204.199 15.7557 201.631C16.054 200.351 16.3872 199.302 16.6445 198.577C16.773 198.214 16.8823 197.933 16.9584 197.745C16.9964 197.651 17.026 197.581 17.0456 197.535C17.0554 197.512 17.0627 197.496 17.0672 197.485C17.0694 197.48 17.071 197.477 17.0719 197.475C17.0723 197.474 17.0726 197.473 17.0726 197.473C17.0727 197.473 17.0726 197.473 17.0726 197.473C17.0726 197.473 17.0725 197.473 17.0725 197.473C17.0724 197.473 17.0723 197.474 16.1602 197.064C15.248 196.654 15.2479 196.654 15.2478 196.654C15.2477 196.655 15.2476 196.655 15.2474 196.655C15.2472 196.656 15.2469 196.656 15.2466 196.657C15.2459 196.659 15.2451 196.661 15.244 196.663C15.242 196.668 15.2392 196.674 15.2357 196.682C15.2287 196.698 15.219 196.72 15.2068 196.749C15.1823 196.806 15.1476 196.889 15.1045 196.995C15.0183 197.208 14.8985 197.516 14.7595 197.908C14.4816 198.692 14.1257 199.813 13.8079 201.177C13.174 203.898 12.6819 207.627 13.2926 211.587L15.2692 211.282ZM16.1602 197.064C15.4157 197.732 15.4156 197.731 15.4154 197.731C15.4154 197.731 15.4153 197.731 15.4152 197.731C15.4151 197.731 15.4151 197.731 15.4152 197.731C15.4153 197.731 15.4157 197.731 15.4164 197.732C15.4177 197.734 15.4203 197.737 15.424 197.741C15.4313 197.749 15.4433 197.763 15.4594 197.782C15.4918 197.819 15.5413 197.877 15.6057 197.954C15.7345 198.11 15.923 198.343 16.1545 198.648C16.6176 199.259 17.2505 200.154 17.9197 201.28C19.2617 203.538 20.7284 206.69 21.2876 210.316L23.2642 210.011C22.6535 206.051 21.0623 202.653 19.639 200.258C18.9254 199.057 18.2488 198.1 17.748 197.44C17.4974 197.109 17.2905 196.853 17.1442 196.677C17.0711 196.589 17.0132 196.521 16.9725 196.474C16.9522 196.45 16.9362 196.432 16.9248 196.419C16.9191 196.412 16.9145 196.407 16.9111 196.403C16.9095 196.402 16.9081 196.4 16.907 196.399C16.9064 196.398 16.9059 196.398 16.9055 196.397C16.9053 196.397 16.9051 196.397 16.905 196.397C16.9048 196.396 16.9046 196.396 16.1602 197.064ZM42.2948 227.642C38.8818 228.83 35.4567 228.985 32.8652 228.835C31.5734 228.76 30.4993 228.609 29.7519 228.479C29.3785 228.414 29.0874 228.353 28.8924 228.31C28.795 228.289 28.7216 228.271 28.674 228.26C28.6502 228.254 28.6329 228.25 28.6222 228.247C28.6169 228.246 28.6132 228.245 28.6112 228.244C28.6102 228.244 28.6097 228.244 28.6095 228.244C28.6095 228.244 28.6095 228.244 28.6097 228.244C28.6097 228.244 28.6099 228.244 28.61 228.244C28.6102 228.244 28.6104 228.244 28.3567 229.211C28.103 230.179 28.1033 230.179 28.1036 230.179C28.1037 230.179 28.1041 230.179 28.1044 230.179C28.1049 230.179 28.1056 230.179 28.1064 230.18C28.108 230.18 28.1101 230.18 28.1125 230.181C28.1174 230.182 28.1241 230.184 28.1324 230.186C28.1491 230.19 28.1726 230.196 28.2026 230.204C28.2627 230.218 28.3491 230.238 28.4601 230.263C28.6821 230.312 29.0026 230.378 29.4078 230.449C30.2176 230.59 31.3688 230.751 32.7494 230.831C35.5028 230.991 39.2112 230.833 42.9525 229.53L42.2948 227.642ZM28.3567 229.211C29.1529 229.816 29.1527 229.817 29.1526 229.817C29.1526 229.817 29.1525 229.817 29.1524 229.817C29.1523 229.817 29.1523 229.817 29.1524 229.817C29.1525 229.817 29.1528 229.816 29.1535 229.816C29.1547 229.814 29.1571 229.811 29.1605 229.806C29.1674 229.798 29.1785 229.783 29.1938 229.764C29.2245 229.725 29.2721 229.665 29.3361 229.588C29.4641 229.432 29.6577 229.203 29.9134 228.918C30.4249 228.349 31.1827 227.561 32.1579 226.696C34.1143 224.961 36.9132 222.948 40.3268 221.76L39.6691 219.871C35.9283 221.174 32.9066 223.359 30.831 225.199C29.7902 226.122 28.979 226.966 28.4258 227.581C28.1489 227.889 27.9361 228.141 27.7908 228.318C27.7182 228.406 27.6624 228.476 27.6238 228.525C27.6046 228.549 27.5896 228.568 27.579 228.582C27.5738 228.589 27.5696 228.594 27.5665 228.598C27.5649 228.6 27.5636 228.602 27.5626 228.603C27.5621 228.604 27.5617 228.605 27.5614 228.605C27.5612 228.605 27.561 228.606 27.5609 228.606C27.5607 228.606 27.5605 228.606 28.3567 229.211ZM40.3268 221.76C43.7398 220.571 47.1649 220.417 49.7564 220.567C51.0482 220.642 52.1223 220.792 52.8697 220.923C53.2431 220.988 53.5342 221.048 53.7291 221.091C53.8266 221.113 53.9 221.13 53.9476 221.142C53.9714 221.147 53.9887 221.152 53.9994 221.154C54.0047 221.156 54.0084 221.157 54.0104 221.157C54.0113 221.157 54.0119 221.158 54.012 221.158C54.0121 221.158 54.0121 221.158 54.0119 221.158C54.0118 221.158 54.0117 221.158 54.0116 221.158C54.0114 221.157 54.0112 221.157 54.2649 220.19C54.5186 219.223 54.5183 219.223 54.518 219.223C54.5179 219.223 54.5175 219.223 54.5172 219.222C54.5166 219.222 54.5159 219.222 54.5151 219.222C54.5135 219.222 54.5115 219.221 54.5091 219.22C54.5041 219.219 54.4975 219.217 54.4892 219.215C54.4725 219.211 54.449 219.205 54.4189 219.198C54.3589 219.183 54.2725 219.163 54.1615 219.138C53.9395 219.089 53.619 219.023 53.2138 218.952C52.404 218.811 51.2528 218.65 49.8722 218.57C47.1188 218.411 43.4104 218.568 39.6691 219.871L40.3268 221.76ZM54.2649 220.19C53.4687 219.585 53.4688 219.585 53.469 219.585C53.469 219.585 53.4691 219.585 53.4692 219.584C53.4692 219.584 53.4693 219.584 53.4692 219.584C53.4691 219.585 53.4687 219.585 53.4681 219.586C53.4668 219.587 53.4645 219.591 53.4611 219.595C53.4542 219.604 53.4431 219.618 53.4278 219.638C53.3971 219.676 53.3495 219.736 53.2855 219.814C53.1574 219.97 52.9638 220.199 52.7082 220.483C52.1966 221.053 51.4389 221.841 50.4637 222.706C48.5072 224.44 45.7083 226.453 42.2948 227.642L42.9525 229.53C46.6933 228.228 49.715 226.042 51.7906 224.202C52.8314 223.279 53.6425 222.436 54.1958 221.82C54.4727 221.512 54.6855 221.26 54.8308 221.084C54.9034 220.995 54.9592 220.925 54.9977 220.877C55.017 220.852 55.032 220.833 55.0425 220.819C55.0478 220.812 55.052 220.807 55.0551 220.803C55.0567 220.801 55.0579 220.799 55.0589 220.798C55.0594 220.797 55.0599 220.797 55.0602 220.796C55.0604 220.796 55.0606 220.796 55.0607 220.796C55.0609 220.795 55.0611 220.795 54.2649 220.19ZM42.5496 275.763C39.4808 276.741 36.2131 276.884 33.0729 276.178L32.6341 278.129C36.1211 278.914 39.75 278.754 43.1572 277.668L42.5496 275.763ZM33.6444 277.766C35.6308 275.198 38.3045 273.271 41.3419 272.213L40.6842 270.325C37.2778 271.511 34.2842 273.671 32.0626 276.542L33.6444 277.766ZM41.3419 272.213C44.3792 271.156 47.6524 271.012 50.7678 271.8L51.2581 269.861C47.7631 268.977 44.0908 269.138 40.6842 270.325L41.3419 272.213ZM50.2382 270.198C48.1833 272.716 45.5144 274.64 42.4997 275.78L43.207 277.651C46.5534 276.386 49.5119 274.251 51.7877 271.463L50.2382 270.198ZM374.441 94.82C374.441 105.187 366.166 113.566 355.989 113.566V115.566C367.299 115.566 376.441 106.264 376.441 94.82H374.441ZM355.989 113.566C345.813 113.566 337.538 105.187 337.538 94.82H335.538C335.538 106.264 344.68 115.566 355.989 115.566V113.566ZM337.538 94.82C337.538 84.4526 345.813 76.0739 355.989 76.0739V74.0739C344.68 74.0739 335.538 83.3764 335.538 94.82H337.538ZM355.989 76.0739C366.166 76.0739 374.441 84.4526 374.441 94.82H376.441C376.441 83.3764 367.299 74.0739 355.989 74.0739V76.0739ZM332.634 104.251C332.634 111.363 326.958 117.102 319.989 117.102V119.102C328.091 119.102 334.634 112.439 334.634 104.251H332.634ZM319.989 117.102C313.019 117.102 307.344 111.363 307.344 104.251H305.344C305.344 112.439 311.886 119.102 319.989 119.102V117.102ZM307.344 104.251C307.344 97.1387 313.019 91.399 319.989 91.399V89.399C311.886 89.399 305.344 96.0626 305.344 104.251H307.344ZM319.989 91.399C326.958 91.399 332.634 97.1387 332.634 104.251H334.634C334.634 96.0625 328.091 89.399 319.989 89.399V91.399ZM79.9702 97.9598C79.9702 103.556 75.5053 108.066 70.0291 108.066V110.066C76.638 110.066 81.9702 104.632 81.9702 97.9598H79.9702ZM70.0291 108.066C64.5529 108.066 60.088 103.556 60.088 97.9598H58.088C58.088 104.632 63.4201 110.066 70.0291 110.066V108.066ZM60.088 97.9598C60.088 92.3639 64.5529 87.8532 70.0291 87.8532V85.8532C63.4201 85.8532 58.088 91.2878 58.088 97.9598H60.088ZM70.0291 87.8532C75.5053 87.8532 79.9702 92.3639 79.9702 97.9598H81.9702C81.9702 91.2877 76.638 85.8532 70.0291 85.8532V87.8532ZM94.7174 108.743C94.7174 112.508 91.7149 115.535 88.0425 115.535V117.535C92.8477 117.535 96.7174 113.584 96.7174 108.743H94.7174ZM88.0425 115.535C84.3701 115.535 81.3674 112.508 81.3674 108.743H79.3674C79.3674 113.584 83.2373 117.535 88.0425 117.535V115.535ZM81.3674 108.743C81.3674 104.979 84.3701 101.952 88.0425 101.952V99.9522C83.2373 99.9522 79.3674 103.902 79.3674 108.743H81.3674ZM88.0425 101.952C91.7149 101.952 94.7174 104.979 94.7174 108.743H96.7174C96.7174 103.902 92.8477 99.9522 88.0425 99.9522V101.952ZM201.544 9.49008C201.544 13.641 198.233 16.9802 194.181 16.9802V18.9802C199.366 18.9802 203.544 14.7171 203.544 9.49008H201.544ZM194.181 16.9802C190.128 16.9802 186.817 13.641 186.817 9.49008H184.817C184.817 14.7171 188.995 18.9802 194.181 18.9802V16.9802ZM186.817 9.49008C186.817 5.33918 190.128 2 194.181 2V0C188.995 0 184.817 4.2631 184.817 9.49008H186.817ZM194.181 2C198.233 2 201.544 5.3392 201.544 9.49008H203.544C203.544 4.26308 199.366 0 194.181 0V2ZM-2.70852 342.092L-36.9129 418.592L-35.0871 419.408L-0.882717 342.908L-2.70852 342.092ZM-35.2148 419.619L-7.21483 384.119L-8.78517 382.881L-36.7852 418.381L-35.2148 419.619Z" style="fill: red"/>
</svg>
